<svg viewBox="0 0 128 128" xmlns="http://www.w3.org/2000/svg">
  <radialGradient id="a" cx="-960.79" cy="-394.319" r="81.933" gradientTransform="matrix(1.059667, 0, 0, 1.304854, 1110.48474, 511.590454)" gradientUnits="userSpaceOnUse">
    <stop offset="0" stop-color="#0da960"/>
    <stop offset="1" stop-color="#03914b"/>
  </radialGradient>
  <radialGradient id="b" cx="-958.042" cy="-342.965" r="60.773" gradientTransform="matrix(1.059667, 0, 0, 1.304854, 1110.48474, 511.590454)" gradientUnits="userSpaceOnUse">
    <stop offset="0" stop-color="#ffcd4d"/>
    <stop offset="1" stop-color="#f6c338"/>
  </radialGradient>
  <linearGradient id="c" gradientUnits="userSpaceOnUse" x1="-938.834" y1="-331.17" x2="-964.705" y2="-331.17" gradientTransform="matrix(1.059667, 0, 0, 1.304854, 1110.48474, 511.590454)">
    <stop offset="0" stop-color="#231f20" stop-opacity=".2"/>
    <stop offset="1" stop-color="#f1f2f2" stop-opacity=".25"/>
  </linearGradient>
  <path fill="url(#a)" d="M 109.719 90.509 C 110.985 93.085 111.009 97.146 109.92 99.94 L 124.991 69.032 C 126.336 66.263 126.336 61.748 124.991 58.991 L 100.634 9.02 C 99.281 6.268 96.039 4 93.421 4 L 72.192 4 C 69.581 4 68.54 6.267 69.887 9.022 L 85.052 40.108 C 85.144 40.266 85.274 40.406 85.355 40.552 L 109.719 90.509 Z"/>
  <path fill="url(#b)" d="M 72.192 123.999 L 93.421 123.999 C 96.04 123.999 99.28 121.75 100.635 118.978 L 109.925 99.937 C 111.01 97.142 110.988 93.083 109.723 90.506 L 94.262 58.983 C 95.606 61.739 95.606 66.255 94.262 69.024 L 79.182 99.915 C 79.107 100.119 79.067 100.364 78.986 100.553 L 69.73 119.524 C 68.781 122.023 69.757 123.999 72.192 123.999 Z"/>
  <path fill="url(#c)" d="M 109.719 90.509 L 94.259 58.988 C 95.603 61.744 95.603 66.259 94.259 69.028 L 88.811 80.198 L 109.918 99.94 C 111.009 97.146 110.985 93.084 109.719 90.509 Z"/>
  <g transform="matrix(1.059666, 0, 0, 1.304854, 2.001325, 4.000451)">
    <radialGradient id="d" cx="-1354.392" cy="-1194.146" r="81.935" gradientTransform="rotate(180 -661.325 -548.432)" gradientUnits="userSpaceOnUse">
      <stop offset="0" stop-color="#4387fd"/>
      <stop offset="1" stop-color="#4683ea"/>
    </radialGradient>
    <path fill="url(#d)" d="M15.365 25.665c-1.181-1.976-1.22-5.088-.182-7.228L.952 42.13c-1.271 2.122-1.271 5.583 0 7.698l23 38.286c1.269 2.113 4.332 3.85 6.791 3.85h20.035c2.473 0 3.455-1.735 2.184-3.85L38.645 64.292c-.08-.123-.21-.229-.281-.342L15.365 25.665z"/>
    <radialGradient id="e" cx="-1351.644" cy="-1142.795" r="60.772" gradientTransform="matrix(-0.999782, 0, 0, -1, -1322.359245, -1096.864014)" gradientUnits="userSpaceOnUse">
      <stop offset="0" stop-color="#e04a3f"/>
      <stop offset="1" stop-color="#cd372d"/>
    </radialGradient>
    <path fill="url(#e)" d="M 50.771 0 L 30.74 0 C 28.282 0 25.22 1.727 23.951 3.849 L 15.183 18.439 C 14.146 20.579 14.185 23.691 15.365 25.667 L 29.96 49.83 C 28.69 47.715 28.69 44.253 29.96 42.132 L 44.181 18.458 C 44.25 18.3 44.285 18.118 44.379 17.966 L 53.106 3.43 C 53.997 1.518 53.069 0 50.771 0 Z"/>
    <linearGradient id="f" gradientUnits="userSpaceOnUse" x1="-1332.434" y1="-1130.997" x2="-1358.31" y2="-1130.997" gradientTransform="matrix(-0.999782, 0, 0, -1, -1322.359245, -1096.864014)">
      <stop offset="0" stop-color="#231f20" stop-opacity=".2"/>
      <stop offset="1" stop-color="#f1f2f2" stop-opacity=".25"/>
    </linearGradient>
    <path fill="url(#f)" d="M 15.365 25.665 L 29.96 49.828 C 28.69 47.713 28.69 44.251 29.96 42.13 L 35.099 33.572 L 15.184 18.438 C 14.147 20.577 14.186 23.69 15.365 25.665 Z"/>
  </g>
</svg>